<?xml version="1.0" encoding="UTF-8"?>
<!DOCTYPE svg PUBLIC "-//W3C//DTD SVG 1.1//EN" "http://www.w3.org/Graphics/SVG/1.1/DTD/svg11.dtd">
<!-- Creator: CorelDRAW -->
<svg xmlns="http://www.w3.org/2000/svg" xml:space="preserve" width="66mm" height="66mm" version="1.1" style="shape-rendering:geometricPrecision; text-rendering:geometricPrecision; image-rendering:optimizeQuality; fill-rule:evenodd; clip-rule:evenodd"
viewBox="0 0 6600 6600"
 xmlns:xlink="http://www.w3.org/1999/xlink"
 xmlns:xodm="http://www.corel.com/coreldraw/odm/2003">
 <defs>
  <style type="text/css">
   <![CDATA[
    .fil0 {fill:red}
    .fil1 {fill:white}
   ]]>
  </style>
 </defs>
 <g id="Capa_x0020_1">
  <metadata id="CorelCorpID_0Corel-Layer"/>
  <circle class="fil0" cx="3298" cy="3302" r="3250"/>
  <path class="fil1" d="M3942.57 1265.65l-194.57 3025.62c0,248.53 -201.47,450 -450,450 -248.53,0 -450,-201.47 -450,-450l-194.57 -3025.62c-3.58,-27.62 -5.43,-55.79 -5.43,-84.38 0,-358.99 291.01,-650 650,-650 358.99,0 650,291.01 650,650 0,28.59 -1.85,56.76 -5.43,84.38zm-644.57 3785.62c248.53,0 450,201.47 450,450 0,248.53 -201.47,450 -450,450 -248.53,0 -450,-201.47 -450,-450 0,-248.53 201.47,-450 450,-450z"/>
 </g>
</svg>
