<?xml version="1.0" encoding="UTF-8"?>
<!DOCTYPE svg PUBLIC "-//W3C//DTD SVG 1.1//EN" "http://www.w3.org/Graphics/SVG/1.1/DTD/svg11.dtd">
<!-- Creator: CorelDRAW -->
<svg xmlns="http://www.w3.org/2000/svg" xml:space="preserve" width="66mm" height="66mm" version="1.1" style="shape-rendering:geometricPrecision; text-rendering:geometricPrecision; image-rendering:optimizeQuality; fill-rule:evenodd; clip-rule:evenodd"
viewBox="0 0 6600 6600"
 xmlns:xlink="http://www.w3.org/1999/xlink"
 xmlns:xodm="http://www.corel.com/coreldraw/odm/2003">
 <defs>
  <style type="text/css">
   <![CDATA[
    .fil0 {fill:#006162}
   ]]>
  </style>
 </defs>
 <g id="Capa_x0020_1">
  <metadata id="CorelCorpID_0Corel-Layer"/>
  <path class="fil0" d="M3298 52c1794.92,0 3250,1455.08 3250,3250 0,1794.92 -1455.08,3250 -3250,3250 -1794.92,0 -3250,-1455.08 -3250,-3250 0,-1794.92 1455.08,-3250 3250,-3250zm-1366.51 5065.47c-123.97,123.97 -324.99,123.97 -448.96,0 -123.97,-123.97 -123.97,-324.99 0,-448.96l1366.51 -1366.51 -1366.51 -1366.51c-123.97,-123.97 -123.97,-324.99 0,-448.96 123.97,-123.97 324.99,-123.97 448.96,0l1366.51 1366.51 1366.51 -1366.51c123.97,-123.97 324.99,-123.97 448.96,0 123.97,123.97 123.97,324.99 0,448.96l-1366.51 1366.51 1366.51 1366.51c123.97,123.97 123.97,324.99 0,448.96 -123.97,123.97 -324.99,123.97 -448.96,0l-1366.51 -1366.51 -1366.51 1366.51zm1366.51 -4665.47c1574.01,0 2850,1275.99 2850,2850 0,1574.01 -1275.99,2850 -2850,2850 -1574.01,0 -2850,-1275.99 -2850,-2850 0,-1574.01 1275.99,-2850 2850,-2850z"/>
 </g>
</svg>
