<?xml version="1.0" encoding="UTF-8"?>
<!DOCTYPE svg PUBLIC "-//W3C//DTD SVG 1.1//EN" "http://www.w3.org/Graphics/SVG/1.1/DTD/svg11.dtd">
<!-- Creator: CorelDRAW -->
<svg xmlns="http://www.w3.org/2000/svg" xml:space="preserve" width="66mm" height="66mm" version="1.1" style="shape-rendering:geometricPrecision; text-rendering:geometricPrecision; image-rendering:optimizeQuality; fill-rule:evenodd; clip-rule:evenodd"
viewBox="0 0 6600 6600"
 xmlns:xlink="http://www.w3.org/1999/xlink"
 xmlns:xodm="http://www.corel.com/coreldraw/odm/2003">
 <defs>
  <style type="text/css">
   <![CDATA[
    .fil1 {fill:none}
    .fil0 {fill:#54E6D1;fill-rule:nonzero}
   ]]>
  </style>
 </defs>
 <g id="Capa_x0020_1">
  <metadata id="CorelCorpID_0Corel-Layer"/>
  <path class="fil0" d="M5804.69 3301.93c-838.86,-1095.03 -1666.83,-1642.58 -2483.5,-1642.58 -188.1,0 -377.44,29.12 -568.01,87.12l-448.23 -454.74c337.51,-142.97 676.26,-214.5 1016.24,-214.5 1053.03,0 2079.58,684.83 3079.48,2054.17l124.49 170.53 -124.49 170.53c-301.04,412.25 -604.48,762.38 -910.31,1050.55l-406.56 -412.42c239.42,-224.31 479.66,-493.84 720.89,-808.66zm-4278.12 -797.78c-240.66,222.09 -483.21,488.07 -727.57,797.78 863.94,1094.94 1704.78,1642.57 2522.19,1642.57 177.62,0 355.74,-25.9 534.44,-77.71l450.45 456.88c-325.71,135.22 -653.98,202.95 -984.89,202.95 -1051.46,0 -2091.54,-683.67 -3120.07,-2050.7l-130.84 -173.99 130.84 -174c305.17,-405.65 611.33,-751.08 918.64,-1036.36l406.81 412.58zm1773.17 -237.76c571.89,0 1035.54,463.65 1035.54,1035.54 0,16.17 -0.41,32.26 -1.15,48.26l-1067.8 -1083.23 33.41 -0.57zm33.5 2070.5l-33.5 0.58c-571.89,0 -1035.54,-463.65 -1035.54,-1035.54 0,-16.17 0.49,-32.34 1.15,-48.35l1067.89 1083.31z"/>
  <path class="fil0" d="M665.51 1043.16c-112.36,-114.26 -110.88,-298.07 3.39,-410.44 114.26,-112.36 298.07,-110.88 410.43,3.38l4854.64 4924.51c112.36,114.27 110.88,298.08 -3.39,410.44 -114.26,112.37 -298.07,110.88 -410.43,-3.38l-4854.64 -4924.51z"/>
  <rect class="fil1" x="-2.24" y="1.93" width="6600" height="6600"/>
 </g>
</svg>
