<?xml version="1.0" encoding="UTF-8"?>
<!DOCTYPE svg PUBLIC "-//W3C//DTD SVG 1.1//EN" "http://www.w3.org/Graphics/SVG/1.1/DTD/svg11.dtd">
<!-- Creator: CorelDRAW -->
<svg xmlns="http://www.w3.org/2000/svg" xml:space="preserve" width="66mm" height="66mm" version="1.1" style="shape-rendering:geometricPrecision; text-rendering:geometricPrecision; image-rendering:optimizeQuality; fill-rule:evenodd; clip-rule:evenodd"
viewBox="0 0 6600 6600"
 xmlns:xlink="http://www.w3.org/1999/xlink"
 xmlns:xodm="http://www.corel.com/coreldraw/odm/2003">
 <defs>
  <style type="text/css">
   <![CDATA[
    .fil0 {fill:white}
   ]]>
  </style>
 </defs>
 <g id="Capa_x0020_1">
  <metadata id="CorelCorpID_0Corel-Layer"/>
  <path class="fil0" d="M3298 2c1822.55,0 3300,1477.45 3300,3300 0,1822.55 -1477.45,3300 -3300,3300 -1822.55,0 -3300,-1477.45 -3300,-3300 0,-1822.55 1477.45,-3300 3300,-3300zm-1048.81 3046.97c-198.81,-161.79 -243.06,-655.15 -78.33,-841.88 -28.05,-243.69 -22.85,-536.1 32.98,-766.8 54.76,-226.34 312.6,-363.01 699.23,-479.9 323.92,-97.92 590.83,-99.27 817.97,47.79 607.07,-120.39 802.75,350.24 715.71,1197.31 171.16,225.38 117.84,666.26 -80.8,847.64 -30.03,193.41 -124.57,389.11 -283.65,587.08 7.95,84.92 22.25,187.17 42.86,306.73 312.34,66.59 415.75,274.41 310.37,623.39 -11.05,-0.89 -22.22,-1.37 -33.49,-1.37 -225.87,0 -408.98,183.11 -408.98,408.98 0,225.88 183.11,408.98 408.98,408.98 225.88,0 408.98,-183.1 408.98,-408.98 0,-140.19 -70.55,-263.88 -178.06,-337.56 64.02,-175.12 74.53,-343.61 31.48,-505.43 537.84,222.03 620.24,367.81 793.2,1325.2 -90.29,89.93 -186.26,174.12 -287.17,252.22 -514.95,398.49 -1160.96,635.77 -1862.47,635.77 -701.51,0 -1347.52,-237.28 -1862.47,-635.77 -100.78,-77.98 -196.59,-162.04 -286.74,-251.81 175.15,-969.51 226.65,-1070.64 749.52,-1313.24 -26.87,93.83 -34.57,181.78 -23.08,263.87 -299.32,187.51 -329.19,621.25 -89.63,1301.18 51.62,135.86 254.54,70.98 420.02,-1.4 50.78,-26.69 74.19,-63.79 64.17,-114.08 -21.36,-95.94 -74.13,-137.99 -158.32,-126.16 -40.16,4.36 -94.29,21.4 -162.43,51.12 -397.92,-1109.83 431.58,-1350.05 761.9,-310.05 -138.52,62.4 -205.87,120.66 -202.01,174.82 4.35,44.59 19.19,87.19 44.52,127.8 25.74,25.06 61.48,31.94 107.19,20.61 102.02,-34.4 192.72,-84.71 272.11,-150.9 27.89,-31.65 36.96,-70.94 27.21,-117.9 -201.67,-649.97 -490.8,-960.83 -867.44,-932.58 -9.7,-207.12 140.65,-341.8 451.05,-404.04 0,0 11.25,-79.17 33.79,-237.48 -171.61,-189.41 -281,-403.8 -328.17,-643.16zm1600.03 814.74c108.76,332.78 -76.49,665.35 -555.76,997.72 -693.13,-603.78 -500.73,-713.72 -432.08,-1264.88 -231.59,-199.8 -353.62,-437.01 -366.09,-711.6 -161.19,-77.95 -226.81,-324.6 -144.29,-492.28 20.17,-40.99 55.68,-52.43 107.19,-39.56 17.99,4.48 24.07,12.45 25.56,28.85 11.17,121.78 50.75,176.74 110.49,165.73 0,0 -1.1,-196.24 -3.3,-588.74 358.82,-37.42 673.25,-128.67 943.31,-273.75 312.23,207.8 468.34,311.69 468.34,311.69 -2.2,365 -3.3,547.51 -3.3,547.51 55.34,4.69 86.39,-28.02 93.18,-98.13 4.91,-66.51 25.23,-99.22 61.01,-98.12 50.78,-3.47 94.5,18.9 104.72,74.21 47.13,255.2 -15.16,409.79 -159.96,459.29 6.65,199.77 -98.86,403.49 -247.74,577.94 -192.21,225.23 -394.61,390.11 -796.16,252.39 198.49,271.77 463.46,322.33 794.88,151.73zm542.82 935.46c98.73,0 178.78,80.03 178.78,178.77 0,98.73 -80.05,178.78 -178.78,178.78 -98.74,0 -178.79,-80.05 -178.79,-178.78 0,-98.74 80.05,-178.77 178.79,-178.77zm-1094.04 -4627.94c1729.08,0 3130.77,1401.69 3130.77,3130.77 0,1729.08 -1401.69,3130.77 -3130.77,3130.77 -1729.08,0 -3130.77,-1401.69 -3130.77,-3130.77 0,-1729.08 1401.69,-3130.77 3130.77,-3130.77z"/>
 </g>
</svg>
