<?xml version="1.0" encoding="UTF-8"?>
<!DOCTYPE svg PUBLIC "-//W3C//DTD SVG 1.1//EN" "http://www.w3.org/Graphics/SVG/1.1/DTD/svg11.dtd">
<!-- Creator: CorelDRAW -->
<svg xmlns="http://www.w3.org/2000/svg" xml:space="preserve" width="66mm" height="66mm" version="1.1" style="shape-rendering:geometricPrecision; text-rendering:geometricPrecision; image-rendering:optimizeQuality; fill-rule:evenodd; clip-rule:evenodd"
viewBox="0 0 6600 6600"
 xmlns:xlink="http://www.w3.org/1999/xlink"
 xmlns:xodm="http://www.corel.com/coreldraw/odm/2003">
 <defs>
  <style type="text/css">
   <![CDATA[
    .fil1 {fill:none}
    .fil0 {fill:white;fill-rule:nonzero}
   ]]>
  </style>
 </defs>
 <g id="Capa_x0020_1">
  <metadata id="CorelCorpID_0Corel-Layer"/>
  <path class="fil0" d="M5804.69 3301.93c-838.86,-1095.03 -1666.83,-1642.58 -2483.5,-1642.58 -817.41,0 -1658.25,547.64 -2522.19,1642.58 863.94,1094.94 1704.78,1642.57 2522.19,1642.57 816.67,0 1644.64,-547.55 2483.5,-1642.57zm-2504.95 -1035.54c571.89,0 1035.54,463.65 1035.54,1035.54 0,571.89 -463.65,1035.54 -1035.54,1035.54 -571.89,0 -1035.54,-463.65 -1035.54,-1035.54 0,-571.89 463.65,-1035.54 1035.54,-1035.54zm21.45 -1189.16c1053.03,0 2079.58,684.83 3079.48,2054.17l124.49 170.53 -124.49 170.53c-999.9,1369.33 -2026.45,2054.16 -3079.48,2054.16 -1051.46,0 -2091.54,-683.67 -3120.07,-2050.7l-130.84 -173.99 130.84 -174c1028.53,-1367.02 2068.61,-2050.7 3120.07,-2050.7z"/>
  <rect class="fil1" x="-2.24" y="1.93" width="6600" height="6600"/>
 </g>
</svg>
